<?xml version="1.0" encoding="UTF-8"?><svg id="Layer_1" xmlns="http://www.w3.org/2000/svg" viewBox="0 0 1200 1200"><defs><style>.cls-1{fill:#032e61;}</style></defs><path class="cls-1" d="m779.2,337.35h174.53l-201.74-201.74v174.53c0,15.01,12.2,27.21,27.21,27.21Z"/><path class="cls-1" d="m327.9,1064.38h544.2c45.01,0,81.63-36.62,81.63-81.63V407.72h-190.47c-45.01,0-81.63-36.62-81.63-81.63v-190.47h-353.73c-45.01,0-81.63,36.62-81.63,81.63v765.51c0,45.01,36.62,81.63,81.63,81.63Zm163.26-491.59h272.1c15.04,0,27.21,12.17,27.21,27.21s-12.17,27.21-27.21,27.21h-272.1c-15.04,0-27.21-12.17-27.21-27.21s12.17-27.21,27.21-27.21Zm0,108.84h272.1c15.04,0,27.21,12.17,27.21,27.21s-12.17,27.21-27.21,27.21h-272.1c-15.04,0-27.21-12.17-27.21-27.21s12.17-27.21,27.21-27.21Zm0,108.84h272.1c15.04,0,27.21,12.17,27.21,27.21s-12.17,27.21-27.21,27.21h-272.1c-15.04,0-27.21-12.17-27.21-27.21s12.17-27.21,27.21-27.21Zm-108.84-217.68c15.03,0,27.21,12.18,27.21,27.21s-12.18,27.21-27.21,27.21-27.21-12.18-27.21-27.21,12.18-27.21,27.21-27.21Zm0,108.84c15.03,0,27.21,12.18,27.21,27.21s-12.18,27.21-27.21,27.21-27.21-12.18-27.21-27.21,12.18-27.21,27.21-27.21Zm0,108.84c15.03,0,27.21,12.18,27.21,27.21s-12.18,27.21-27.21,27.21-27.21-12.18-27.21-27.21,12.18-27.21,27.21-27.21Z"/></svg>