<?xml version="1.0" encoding="UTF-8"?><svg id="Layer_1" xmlns="http://www.w3.org/2000/svg" viewBox="0 0 1200 1200"><defs><style>.cls-1{fill:#032e61;}</style></defs><path class="cls-1" d="m1025.72,561.2c-21.41,0-38.76-17.35-38.76-38.76-.17-171.2-138.91-309.94-310.11-310.11-21.41,0-38.76-17.35-38.76-38.76s17.35-38.76,38.76-38.76c213.99.23,387.4,173.65,387.63,387.63,0,21.41-17.35,38.76-38.76,38.76Zm-116.29-38.76c0-128.45-104.13-232.58-232.58-232.58-21.41,0-38.76,17.35-38.76,38.76s17.35,38.76,38.76,38.76c85.63,0,155.05,69.42,155.05,155.05,0,21.41,17.35,38.76,38.76,38.76s38.76-17.35,38.76-38.76Zm84.62,471.52l35.27-40.66c46.75-46.9,46.75-122.77,0-169.67-1.2-1.2-94.47-72.95-94.47-72.95-46.5-44.26-119.57-44.16-165.95.23l-73.88,62.25c-121.81-50.41-218.51-147.28-268.71-269.17l62.02-73.65c44.43-46.37,44.55-119.47.27-165.98,0,0-71.83-93.15-73.03-94.35-46.02-46.32-120.7-47.11-167.69-1.78l-44.58,38.76c-263.36,305.53,303.75,868.26,619.36,858.14,64.39.37,126.19-25.29,171.37-71.17Z"/></svg>