<?xml version="1.0" encoding="UTF-8"?><svg id="Layer_1" xmlns="http://www.w3.org/2000/svg" viewBox="0 0 1200 1200"><defs><style>.cls-1{fill:#032e61;}</style></defs><path class="cls-1" d="m770.16,606.61c-28.65-28.65-66.98-44.53-107.25-44.53h-63.11v63.11c0,40.27,15.87,78.99,44.53,107.25l264.83,264.83c32.91,32.91,86.73,39.11,122.74,9.68,41.43-34.07,43.75-95.25,6.97-132.03l-268.32-268.32h-.39ZM139.05,329c18.2-88.28,96.41-154.87,189.72-154.87h542.06c93.31,0,171.52,66.6,189.72,154.87H139.05Zm925.37,77.44v348.47c0,11.62-1.16,22.84-3.1,33.69l-236.57-236.57c-42.98-42.98-101.44-66.98-162.23-66.98h-101.44c-21.3,0-38.72,17.42-38.72,38.72v101.83c0,60.79,24.01,119.25,66.98,162.23l161.07,161.07h-421.64c-106.86,0-193.59-86.73-193.59-193.59v-348.85h929.24Z"/></svg>