<?xml version="1.0" encoding="UTF-8"?><svg id="Layer_1" xmlns="http://www.w3.org/2000/svg" viewBox="0 0 1200 1200"><defs><style>.cls-1{fill:#032e61;}</style></defs><path class="cls-1" d="m600,135.18c-256.71,0-464.82,208.11-464.82,464.82s208.11,464.82,464.82,464.82,464.82-208.11,464.82-464.82c-.28-256.6-208.22-464.54-464.82-464.82Zm0,774.7c-21.39,0-38.73-17.34-38.73-38.73s17.34-38.73,38.73-38.73,38.73,17.34,38.73,38.73-17.34,38.73-38.73,38.73Zm74.76-290.28c-23.27,14.55-37,40.4-36.02,67.82v28.78c0,21.39-17.34,38.73-38.73,38.73s-38.73-17.34-38.73-38.73v-28.78c-1.17-55.66,27.96-107.57,76.08-135.57,29.36-16.17,44.99-49.38,38.73-82.31-6.17-31.28-30.68-55.71-61.98-61.78-42.07-7.79-82.49,20.01-90.28,62.08-.85,4.6-1.29,9.28-1.29,13.96,0,21.39-17.34,38.73-38.73,38.73s-38.73-17.34-38.73-38.73c.03-85.57,69.42-154.91,154.99-154.88,85.57.03,154.92,69.42,154.88,154.99-.02,56.45-30.74,108.42-80.18,135.66v.04Z"/></svg>