<?xml version="1.0" encoding="UTF-8"?><svg id="Layer_1" xmlns="http://www.w3.org/2000/svg" viewBox="0 0 1200 1200"><defs><style>.cls-1{fill:#032e61;}</style></defs><path class="cls-1" d="m928.68,271.32c-87.79-87.79-204.52-136.14-328.68-136.14s-240.89,48.35-328.68,136.14c-87.79,87.79-136.14,204.52-136.14,328.68s48.35,240.88,136.14,328.68c87.79,87.79,204.52,136.14,328.68,136.14s240.89-48.35,328.68-136.14c87.79-87.79,136.14-204.52,136.14-328.68s-48.35-240.88-136.14-328.68h0Zm-328.68,299.63c72.09,0,130.73,58.65,130.73,130.73,0,59.69-40.23,110.14-94.99,125.72-3.93,1.12-6.69,4.66-6.69,8.75v24.49c0,15.64-12.02,29.1-27.65,29.84-16.68.78-30.45-12.51-30.45-29.02v-25.31c0-4.08-2.73-7.62-6.66-8.74-54.53-15.51-94.66-65.57-95.02-124.92-.1-15.84,12.36-29.4,28.2-29.85,16.43-.47,29.9,12.71,29.9,29.04,0,41.76,35.44,75.41,77.82,72.45,35.78-2.5,64.76-31.48,67.26-67.26,2.96-42.38-30.68-77.82-72.45-77.82-72.09,0-130.73-58.65-130.73-130.73,0-59.69,40.23-110.14,94.99-125.72,3.93-1.12,6.69-4.66,6.69-8.75v-24.49c0-15.64,12.02-29.1,27.65-29.84,16.68-.78,30.45,12.51,30.45,29.02v25.31c0,4.08,2.73,7.62,6.66,8.74,54.53,15.51,94.66,65.57,95.02,124.92.1,15.84-12.36,29.4-28.2,29.85-16.43.47-29.9-12.71-29.9-29.04,0-41.76-35.44-75.41-77.82-72.45-35.78,2.5-64.76,31.48-67.26,67.26-2.96,42.38,30.68,77.82,72.45,77.82h0Z"/></svg>