<?xml version="1.0" encoding="UTF-8"?><svg id="Layer_1" xmlns="http://www.w3.org/2000/svg" viewBox="0 0 1200 1200"><defs><style>.cls-1{fill:#032e61;}</style></defs><path class="cls-1" d="m600,754.79c-85.49,0-154.79-69.3-154.79-154.79s69.3-154.79,154.79-154.79,154.79,69.3,154.79,154.79-69.3,154.79-154.79,154.79Zm-244.46,0h-181.23c-21.37,0-38.7-17.33-38.7-38.7.76-114.81,85.02-211.96,198.56-228.94,21.17-2.97,40.73,11.79,43.69,32.96.75,5.37.37,10.83-1.13,16.04-5.93,20.77-8.94,42.26-8.94,63.85.01,34.43,7.76,68.42,22.68,99.46,9.19,19.3,1,42.39-18.3,51.58-5.16,2.46-10.81,3.74-16.53,3.76h-.12Zm437.95,309.59h-386.99c-21.37,0-38.7-17.33-38.7-38.7,0-128.24,103.96-232.19,232.19-232.19s232.19,103.96,232.19,232.19c0,21.37-17.33,38.7-38.7,38.7Zm38.7-619.18c-85.49,0-154.79-69.3-154.79-154.79s69.3-154.79,154.79-154.79,154.79,69.3,154.79,154.79-69.3,154.79-154.79,154.79Zm-464.38,0c-85.49,0-154.79-69.3-154.79-154.79s69.3-154.79,154.79-154.79,154.79,69.3,154.79,154.79-69.3,154.79-154.79,154.79Zm657.88,309.59h-181.23c-21.37-.06-38.65-17.44-38.59-38.81.02-5.72,1.3-11.37,3.76-16.53,14.88-31.04,22.59-65.03,22.56-99.46-.06-21.61-3.14-43.1-9.13-63.85-5.91-20.54,5.95-41.98,26.49-47.89,5.28-1.52,10.83-1.9,16.27-1.1,113.55,16.98,197.81,114.14,198.56,228.94,0,21.37-17.33,38.7-38.7,38.7Z"/></svg>